# xmcd
#
# Track frame offsets:
#	150
#	13212
#	26769
#	41416
#	55675
#	67882
#	79506
#	91431
#	102647
#	114254
#	128319
#	142028
#	152985
#	165308
#	179554
#	192741
#
# Disc length: 2725 seconds
#
# Revision: 0
# Processed by: cddbd v1.5.1PL2 Copyright (c) Steve Scherf et al.
# Submitted via: dBpowerAMP V4.0
#
DISCID=d20aa310
DTITLE=Eddy Arnold - Greatest Hits and Favorites CD 1
DYEAR=2005
DGENRE=Country
TTITLE0=Anytime
TTITLE1=What A Fool I Was
TTITLE2=Will The Circle Be Unbroken
TTITLE3=I'm Thinking Tonight Of My Blue Eyes
TTITLE4=Texarkana Baby
TTITLE5=Don't Bother To Cry
TTITLE6=It Makes No Difference Now
TTITLE7=My Heart Cries For You
TTITLE8=Bouquet Of Roses
TTITLE9=Mother's Prayer
TTITLE10=Did You See My Daddy Over There
TTITLE11=Easy Rockin' Chair
TTITLE12=I Walk Alone
TTITLE13=My Daddy Is Only A Picture
TTITLE14=Many Tears Ago
TTITLE15=Don't Rob Another Man's Castle
EXTD=
EXTT0=
EXTT1=
EXTT2=
EXTT3=
EXTT4=
EXTT5=
EXTT6=
EXTT7=
EXTT8=
EXTT9=
EXTT10=
EXTT11=
EXTT12=
EXTT13=
EXTT14=
EXTT15=
PLAYORDER=
